{"asset": {"version": "2.0", "generator": "mtm test fixture"}, "scene": 0, "scenes": [{"nodes": [0, 1]}], "nodes": [{"name": "MTM_Body", "mesh": 0}, {"name": "MTM_Wheel", "mesh": 1}], "meshes": [{"name": "BodyMesh", "primitives": [{"attributes": {"POSITION": 1}, "indices": 0, "material": 0}]}, {"name": "WheelMesh", "primitives": [{"attributes": {"POSITION": 3}, "indices": 2, "material": 1}]}], "materials": [{"name": "Body", "pbrMetallicRoughness": {"baseColorFactor": [0.85, 0.15, 0.55, 1.0]}}, {"name": "Wheel", "pbrMetallicRoughness": {"baseColorFactor": [0.12, 0.12, 0.12, 1.0]}}], "bufferViews": [{"buffer": 0, "byteOffset": 0, "byteLength": 72, "target": 34963}, {"buffer": 0, "byteOffset": 72, "byteLength": 96, "target": 34962}, {"buffer": 0, "byteOffset": 168, "byteLength": 72, "target": 34963}, {"buffer": 0, "byteOffset": 240, "byteLength": 96, "target": 34962}], "accessors": [{"bufferView": 0, "componentType": 5123, "count": 36, "type": "SCALAR"}, {"bufferView": 1, "componentType": 5126, "count": 8, "type": "VEC3", "min": [-1.2, -0.4, -2.6], "max": [1.2, 1.2000000000000002, 2.6]}, {"bufferView": 2, "componentType": 5123, "count": 36, "type": "SCALAR"}, {"bufferView": 3, "componentType": 5126, "count": 8, "type": "VEC3", "min": [-0.31, -0.92, -0.92], "max": [0.31, 0.92, 0.92]}], "buffers": [{"byteLength": 336, "uri": "data:application/octet-stream;base64,"}]}